REM DIRINDEX 1\8,1\2\11,1\3\12,1\3\14,1\5\15,1\5\16,1\6\17,1\6\18,1\4\19,1\4\20,1\4\21,1\4\22,1\7\23,1\7\24,1\7\25,1\2\9\26,1\2\9\27,1\2\10\28,1\2\10\29,1\2\10\30,1\2\10\31,1\2\10\32,1\3\13\33,1\3\13\34,1\3\13\35
REM DIRNAME cjc123,folder01,folder02,folder03,folder04,folder05,folder06,folder07,folder08,folder09,folder10,folder11,folder12,folder13,folder14,folder15,folder16,folder17,folder18,folder19,folder20,folder21,folder22,folder23,folder24,folder25,folder26,folder27,folder28,folder29,folder30,folder31,folder32,folder33,folder34
TITLE ""
FILE "123 123_例文UNIT1_SET1.mp3" MP3
  TRACK 01 AUDIO
    TITLE "22:cjc123_2636"
    INDEX 01 00:00:00
  TRACK 02 AUDIO
    TITLE "0:"
    INDEX 01 00:02:55
  TRACK 03 AUDIO
    TITLE "19:cjc123_2637"
    INDEX 01 00:03:37
  TRACK 04 AUDIO
    TITLE "0:"
    INDEX 01 00:06:02
  TRACK 05 AUDIO
    TITLE "20:cjc123_2638"
    INDEX 01 00:06:33
  TRACK 06 AUDIO
    TITLE "0:"
    INDEX 01 00:09:20
  TRACK 07 AUDIO
    TITLE "21:cjc123_2639"
    INDEX 01 00:09:45
  TRACK 08 AUDIO
    TITLE "0:"
    INDEX 01 00:12:11
  TRACK 09 AUDIO
    TITLE "19:cjc123_2640"
    INDEX 01 00:12:71
  TRACK 10 AUDIO
    TITLE "0:"
    INDEX 01 00:15:68
  TRACK 11 AUDIO
    TITLE "20:cjc123_2641"
    INDEX 01 00:16:40
  TRACK 12 AUDIO
    TITLE "0:"
    INDEX 01 00:19:46
  TRACK 13 AUDIO
    TITLE "21:cjc123_2642"
    INDEX 01 00:20:10
  TRACK 14 AUDIO
    TITLE "0:"
    INDEX 01 00:23:08
  TRACK 15 AUDIO
    TITLE "19:cjc123_2643"
    INDEX 01 00:24:06
  TRACK 16 AUDIO
    TITLE "0:"
    INDEX 01 00:27:04
  TRACK 17 AUDIO
    TITLE "20:cjc123_2644"
    INDEX 01 00:27:39
  TRACK 18 AUDIO
    TITLE "0:"
    INDEX 01 00:30:20
  TRACK 19 AUDIO
    TITLE "21:cjc123_2645"
    INDEX 01 00:30:48
  TRACK 20 AUDIO
    TITLE "0:"
    INDEX 01 00:33:50
  TRACK 21 AUDIO
    TITLE "19:cjc123_2646"
    INDEX 01 00:34:26
  TRACK 22 AUDIO
    TITLE "0:"
    INDEX 01 00:36:62
  TRACK 23 AUDIO
    TITLE "20:cjc123_2647"
    INDEX 01 00:37:24
  TRACK 24 AUDIO
    TITLE "0:"
    INDEX 01 00:39:68
  TRACK 25 AUDIO
    TITLE "21:cjc123_2648"
    INDEX 01 00:40:21
  TRACK 26 AUDIO
    TITLE "0:"
    INDEX 01 00:42:55
  TRACK 27 AUDIO
    TITLE "19:cjc123_2649"
    INDEX 01 00:43:35
  TRACK 28 AUDIO
    TITLE "0:"
    INDEX 01 00:46:25
  TRACK 29 AUDIO
    TITLE "20:cjc123_2650"
    INDEX 01 00:46:56
  TRACK 30 AUDIO
    TITLE "0:"
    INDEX 01 00:49:61
  TRACK 31 AUDIO
    TITLE "21:cjc123_2651"
    INDEX 01 00:50:13
  TRACK 32 AUDIO
    TITLE "0:"
    INDEX 01 00:53:04
  TRACK 33 AUDIO
    TITLE "19:cjc123_2652"
    INDEX 01 00:53:53
  TRACK 34 AUDIO
    TITLE "0:"
    INDEX 01 00:56:20
  TRACK 35 AUDIO
    TITLE "20:cjc123_2653"
    INDEX 01 00:56:59
  TRACK 36 AUDIO
    TITLE "0:"
    INDEX 01 00:59:43
  TRACK 37 AUDIO
    TITLE "21:cjc123_2654"
    INDEX 01 00:59:69
  TRACK 38 AUDIO
    TITLE "0:"
    INDEX 01 01:02:38
  TRACK 39 AUDIO
    TITLE "19:cjc123_2655"
    INDEX 01 01:03:22
  TRACK 40 AUDIO
    TITLE "0:"
    INDEX 01 01:05:62
  TRACK 41 AUDIO
    TITLE "20:cjc123_2656"
    INDEX 01 01:06:20
  TRACK 42 AUDIO
    TITLE "0:"
    INDEX 01 01:08:74
  TRACK 43 AUDIO
    TITLE "21:cjc123_2657"
    INDEX 01 01:09:24
  TRACK 44 AUDIO
    TITLE "0:"
    INDEX 01 01:11:64
  TRACK 45 AUDIO
    TITLE "19:cjc123_2658"
    INDEX 01 01:12:56
  TRACK 46 AUDIO
    TITLE "0:"
    INDEX 01 01:16:05
  TRACK 47 AUDIO
    TITLE "20:cjc123_2659"
    INDEX 01 01:16:38
  TRACK 48 AUDIO
    TITLE "0:"
    INDEX 01 01:19:34
  TRACK 49 AUDIO
    TITLE "21:cjc123_2660"
    INDEX 01 01:19:62
  TRACK 50 AUDIO
    TITLE "0:"
    INDEX 01 01:23:11
  TRACK 51 AUDIO
    TITLE "19:cjc123_2661"
    INDEX 01 01:23:65
  TRACK 52 AUDIO
    TITLE "0:"
    INDEX 01 01:26:56
  TRACK 53 AUDIO
    TITLE "20:cjc123_2662"
    INDEX 01 01:27:10
  TRACK 54 AUDIO
    TITLE "0:"
    INDEX 01 01:29:58
  TRACK 55 AUDIO
    TITLE "21:cjc123_2663"
    INDEX 01 01:30:11
  TRACK 56 AUDIO
    TITLE "0:"
    INDEX 01 01:32:74
  TRACK 57 AUDIO
    TITLE "19:cjc123_2664"
    INDEX 01 01:33:52
  TRACK 58 AUDIO
    TITLE "0:"
    INDEX 01 01:36:01
  TRACK 59 AUDIO
    TITLE "20:cjc123_2665"
    INDEX 01 01:36:37
  TRACK 60 AUDIO
    TITLE "0:"
    INDEX 01 01:38:65
  TRACK 61 AUDIO
    TITLE "21:cjc123_2666"
    INDEX 01 01:39:17
  TRACK 62 AUDIO
    TITLE "0:"
    INDEX 01 01:41:38
  TRACK 63 AUDIO
    TITLE "19:cjc123_2667"
    INDEX 01 01:42:31
  TRACK 64 AUDIO
    TITLE "0:"
    INDEX 01 01:45:38
  TRACK 65 AUDIO
    TITLE "20:cjc123_2668"
    INDEX 01 01:46:00
  TRACK 66 AUDIO
    TITLE "0:"
    INDEX 01 01:49:53
  TRACK 67 AUDIO
    TITLE "21:cjc123_2669"
    INDEX 01 01:50:04
  TRACK 68 AUDIO
    TITLE "0:"
    INDEX 01 01:53:08
  TRACK 69 AUDIO
    TITLE "19:cjc123_2670"
    INDEX 01 01:53:67
  TRACK 70 AUDIO
    TITLE "0:"
    INDEX 01 01:56:26
  TRACK 71 AUDIO
    TITLE "20:cjc123_2671"
    INDEX 01 01:56:59
  TRACK 72 AUDIO
    TITLE "0:"
    INDEX 01 01:59:44
  TRACK 73 AUDIO
    TITLE "21:cjc123_2672"
    INDEX 01 01:59:71
  TRACK 74 AUDIO
    TITLE "0:"
    INDEX 01 02:02:32
  TRACK 75 AUDIO
    TITLE "19:cjc123_2673"
    INDEX 01 02:03:14
  TRACK 76 AUDIO
    TITLE "0:"
    INDEX 01 02:06:16
  TRACK 77 AUDIO
    TITLE "20:cjc123_2674"
    INDEX 01 02:06:57
  TRACK 78 AUDIO
    TITLE "0:"
    INDEX 01 02:09:38
  TRACK 79 AUDIO
    TITLE "21:cjc123_2675"
    INDEX 01 02:09:69
  TRACK 80 AUDIO
    TITLE "0:"
    INDEX 01 02:12:70
  TRACK 81 AUDIO
    TITLE "19:cjc123_2676"
    INDEX 01 02:13:59
  TRACK 82 AUDIO
    TITLE "0:"
    INDEX 01 02:16:72
  TRACK 83 AUDIO
    TITLE "20:cjc123_2677"
    INDEX 01 02:17:36
  TRACK 84 AUDIO
    TITLE "0:"
    INDEX 01 02:20:50
  TRACK 85 AUDIO
    TITLE "21:cjc123_2678"
    INDEX 01 02:21:02
  TRACK 86 AUDIO
    TITLE "0:"
    INDEX 01 02:24:14
  TRACK 87 AUDIO
    TITLE "19:cjc123_2679"
    INDEX 01 02:25:20
  TRACK 88 AUDIO
    TITLE "0:"
    INDEX 01 02:27:71
  TRACK 89 AUDIO
    TITLE "20:cjc123_2680"
    INDEX 01 02:28:24
  TRACK 90 AUDIO
    TITLE "0:"
    INDEX 01 02:31:06
  TRACK 91 AUDIO
    TITLE "21:cjc123_2681"
    INDEX 01 02:31:34
  TRACK 92 AUDIO
    TITLE "0:"
    INDEX 01 02:34:11
